<svg id="file-alt-regular" xmlns="http://www.w3.org/2000/svg" width="10.616" height="14" viewBox="0 0 10.616 14">
  <path id="Shape" d="M9.289,14H1.327A1.321,1.321,0,0,1,0,12.687V1.312A1.321,1.321,0,0,1,1.327,0H6.97a1.342,1.342,0,0,1,.937.385l2.32,2.294a1.307,1.307,0,0,1,.39.927v9.081A1.322,1.322,0,0,1,9.289,14ZM1.327,1.312V12.687H9.289V4.812H6.414a.661.661,0,0,1-.664-.656V1.312Zm5.751.107V3.5h2.1Zm.553,8.753H2.986a.331.331,0,0,1-.332-.329V9.078a.331.331,0,0,1,.332-.328H7.63a.331.331,0,0,1,.332.328v.765A.331.331,0,0,1,7.63,10.172Zm0-2.3H2.986a.331.331,0,0,1-.332-.329V6.782a.331.331,0,0,1,.332-.329H7.63a.331.331,0,0,1,.332.329v.765A.331.331,0,0,1,7.63,7.875Z" fill="#bbbac2"/>
</svg>
