<svg id="Component_1_1" data-name="Component 1 – 1" xmlns="http://www.w3.org/2000/svg" width="20" height="20" viewBox="0 0 20 20">
  <g id="Oval">
    <circle id="Oval-2" data-name="Oval" cx="10" cy="10" r="10" fill="#6c7293"/>
  </g>
  <path id="Path" d="M7.791,6.274,5.516,4,7.791,1.726a.715.715,0,0,0,0-1.011L7.285.209a.715.715,0,0,0-1.011,0L4,2.484,1.726.209a.715.715,0,0,0-1.011,0L.209.715a.715.715,0,0,0,0,1.011L2.484,4,.209,6.274a.715.715,0,0,0,0,1.011l.505.505a.715.715,0,0,0,1.011,0L4,5.516,6.274,7.791a.715.715,0,0,0,1.011,0l.505-.505A.715.715,0,0,0,7.791,6.274Z" transform="translate(6 6)" fill="rgba(255,255,255,0.84)"/>
</svg>
